<svg width="30" height="30" viewBox="0 0 30 30" fill="none" xmlns="http://www.w3.org/2000/svg">
<path d="M15.9088 4.60875C16.0215 4.48941 16.1097 4.34903 16.1682 4.19562C16.2267 4.04221 16.2545 3.87877 16.2498 3.71464C16.2452 3.55052 16.2082 3.38891 16.1411 3.23905C16.074 3.0892 15.9781 2.95402 15.8588 2.84125C15.7394 2.72848 15.599 2.64031 15.4456 2.58179C15.2922 2.52327 15.1288 2.49554 14.9646 2.50019C14.8005 2.50483 14.6389 2.54175 14.4891 2.60885C14.3392 2.67595 14.204 2.77191 14.0913 2.89125L3.46625 14.1412C3.24683 14.3733 3.12457 14.6806 3.12457 15C3.12457 15.3194 3.24683 15.6267 3.46625 15.8587L14.0913 27.11C14.2033 27.232 14.3384 27.3304 14.4888 27.3997C14.6392 27.469 14.8019 27.5077 14.9674 27.5136C15.1329 27.5195 15.2979 27.4924 15.4529 27.434C15.6078 27.3755 15.7496 27.2869 15.87 27.1732C15.9904 27.0595 16.087 26.923 16.1542 26.7717C16.2214 26.6203 16.2579 26.4571 16.2615 26.2916C16.2651 26.126 16.2358 25.9614 16.1752 25.8073C16.1147 25.6531 16.0241 25.5126 15.9088 25.3937L6.09375 15L15.9088 4.60875Z" fill="#101016"/>
</svg>
