<svg width="242" height="16" viewBox="0 0 242 16" fill="none" xmlns="http://www.w3.org/2000/svg">
<mask id="mask0_63_313" style="mask-type:alpha" maskUnits="userSpaceOnUse" x="0" y="0" width="242" height="16">
<path d="M241.707 8.70711C242.098 8.31658 242.098 7.68342 241.707 7.29289L235.343 0.928932C234.953 0.538408 234.319 0.538408 233.929 0.928932C233.538 1.31946 233.538 1.95262 233.929 2.34315L239.586 8L233.929 13.6569C233.538 14.0474 233.538 14.6805 233.929 15.0711C234.319 15.4616 234.953 15.4616 235.343 15.0711L241.707 8.70711ZM1 9H241V7H1V9Z" fill="#101016"/>
<path d="M0.292923 7.29289C-0.0976028 7.68341 -0.0976029 8.31658 0.292923 8.7071L6.65688 15.0711C7.04741 15.4616 7.68057 15.4616 8.0711 15.0711C8.46162 14.6805 8.46162 14.0474 8.0711 13.6568L2.41425 7.99999L8.0711 2.34314C8.46162 1.95261 8.46162 1.31945 8.0711 0.928925C7.68057 0.538401 7.04741 0.538401 6.65688 0.928925L0.292923 7.29289ZM85.5071 7L1.00003 6.99999L1.00003 8.99999L85.5071 9L85.5071 7Z" fill="#101016"/>
</mask>
<g mask="url(#mask0_63_313)">
<rect x="-15.9014" y="-0.965515" width="258.028" height="17.931" fill="url(#paint0_linear_63_313)"/>
</g>
<defs>
<linearGradient id="paint0_linear_63_313" x1="-15.9014" y1="8" x2="242.127" y2="8" gradientUnits="userSpaceOnUse">
<stop stop-color="#1E1E1E"/>
<stop offset="1" stop-color="#B90FFF"/>
</linearGradient>
</defs>
</svg>
