<svg width="28" height="30" viewBox="0 0 28 30" fill="none" xmlns="http://www.w3.org/2000/svg">
<path d="M14.0001 0.666656C21.3641 0.666656 27.3334 6.63599 27.3334 14C27.3334 21.364 21.3641 27.3333 14.0001 27.3333H3.33341C2.62617 27.3333 1.94789 27.0524 1.4478 26.5523C0.947699 26.0522 0.666748 25.3739 0.666748 24.6667V14C0.666748 6.63599 6.63608 0.666656 14.0001 0.666656ZM14.0001 3.33332C11.1711 3.33332 8.458 4.45713 6.45761 6.45752C4.45722 8.45791 3.33341 11.171 3.33341 14V24.6667H14.0001C16.8291 24.6667 19.5422 23.5428 21.5426 21.5425C23.5429 19.5421 24.6667 16.829 24.6667 14C24.6667 11.171 23.5429 8.45791 21.5426 6.45752C19.5422 4.45713 16.8291 3.33332 14.0001 3.33332ZM14.0001 16.6667C14.3399 16.667 14.6668 16.7972 14.9139 17.0305C15.161 17.2637 15.3097 17.5826 15.3296 17.9218C15.3496 18.2611 15.2392 18.5952 15.0211 18.8558C14.8029 19.1164 14.4935 19.2839 14.1561 19.324L14.0001 19.3333H10.0001C9.66024 19.3329 9.33337 19.2028 9.08626 18.9695C8.83914 18.7362 8.69043 18.4174 8.67052 18.0781C8.6506 17.7389 8.76098 17.4048 8.9791 17.1442C9.19722 16.8836 9.50662 16.7161 9.84408 16.676L10.0001 16.6667H14.0001ZM18.0001 11.3333C18.3537 11.3333 18.6928 11.4738 18.9429 11.7238C19.1929 11.9739 19.3334 12.313 19.3334 12.6667C19.3334 13.0203 19.1929 13.3594 18.9429 13.6095C18.6928 13.8595 18.3537 14 18.0001 14H10.0001C9.64646 14 9.30732 13.8595 9.05727 13.6095C8.80722 13.3594 8.66675 13.0203 8.66675 12.6667C8.66675 12.313 8.80722 11.9739 9.05727 11.7238C9.30732 11.4738 9.64646 11.3333 10.0001 11.3333H18.0001Z" fill="black"/>
</svg>
