<svg width="22" height="22" viewBox="0 0 22 22" fill="none" xmlns="http://www.w3.org/2000/svg">
<path d="M3.52237 7.24272C4.2189 5.85659 5.28703 4.69137 6.60748 3.87717C7.92793 3.06297 9.44871 2.63185 11 2.63196C13.2552 2.63196 15.1497 3.46123 16.5982 4.81182L14.1991 7.21176C13.3313 6.38249 12.2284 5.95991 11 5.95991C8.82014 5.95991 6.975 7.43267 6.31812 9.41003C6.15076 9.9121 6.05536 10.4477 6.05536 10.9999C6.05536 11.5522 6.15076 12.0878 6.31812 12.5899C6.97584 14.568 8.82014 16.04 11 16.04C12.1255 16.04 13.0836 15.7429 13.8334 15.2408C14.2681 14.9547 14.6402 14.5833 14.9273 14.1492C15.2143 13.7152 15.4104 13.2274 15.5037 12.7154H11V9.47864H18.881C18.9797 10.0259 19.0333 10.5966 19.0333 11.1899C19.0333 13.7388 18.1212 15.8843 16.5379 17.3404C15.1539 18.619 13.2594 19.3679 11 19.3679C9.90098 19.3684 8.81264 19.1522 7.79719 18.7318C6.78174 18.3115 5.85909 17.6951 5.08196 16.918C4.30484 16.1409 3.68847 15.2182 3.2681 14.2028C2.84772 13.1873 2.63158 12.099 2.63202 10.9999C2.63202 9.64935 2.95502 8.3724 3.52237 7.24272Z" fill="#B90FFF"/>
</svg>
