<svg width="26" height="27" viewBox="0 0 26 27" fill="none" xmlns="http://www.w3.org/2000/svg">
<path d="M24.7675 11.2313L14.7675 1.23126C14.2987 0.762587 13.6629 0.499298 13 0.499298C12.3371 0.499298 11.7013 0.762587 11.2325 1.23126L1.23251 11.2313C0.999421 11.4629 0.814646 11.7386 0.688905 12.0422C0.563163 12.3458 0.498958 12.6714 0.500013 13V25C0.500013 25.3978 0.658048 25.7794 0.939353 26.0607C1.22066 26.342 1.60219 26.5 2.00001 26.5H10C10.3978 26.5 10.7794 26.342 11.0607 26.0607C11.342 25.7794 11.5 25.3978 11.5 25V18.5H14.5V25C14.5 25.3978 14.658 25.7794 14.9394 26.0607C15.2207 26.342 15.6022 26.5 16 26.5H24C24.3978 26.5 24.7794 26.342 25.0607 26.0607C25.342 25.7794 25.5 25.3978 25.5 25V13C25.5011 12.6714 25.4369 12.3458 25.3111 12.0422C25.1854 11.7386 25.0006 11.4629 24.7675 11.2313ZM22.5 23.5H17.5V17C17.5 16.6022 17.342 16.2207 17.0607 15.9394C16.7794 15.6581 16.3978 15.5 16 15.5H10C9.60219 15.5 9.22066 15.6581 8.93935 15.9394C8.65805 16.2207 8.50001 16.6022 8.50001 17V23.5H3.50001V13.2063L13 3.70626L22.5 13.2063V23.5Z" fill="black"/>
</svg>
