<svg width="66" height="71" viewBox="0 0 66 71" fill="none" xmlns="http://www.w3.org/2000/svg">
<path d="M22.3389 29.5V36.5C22.2982 38.5037 23.3061 39.157 26.8017 39.5L42.1736 39C44.2768 39.0702 44.8825 37.8773 45.1488 34M25.8099 40.5C19.0349 49.1687 14.0269 52.3513 3.99176 56.5M20.8513 47.5H50.1075" stroke="#B90FFF" stroke-width="6" stroke-linecap="round"/>
<path d="M16.8843 50C32.2285 61.8 42.4676 65.4883 63 68M3 68C24.9173 65.3699 34.8663 60.632 49.6116 48" stroke="#B90FFF" stroke-width="6" stroke-linecap="round"/>
<path d="M3.99176 30.5V20.5H61.5124V31" stroke="#B90FFF" stroke-width="6" stroke-linecap="round"/>
<path d="M13.4132 11L17.3802 16.5" stroke="#B90FFF" stroke-width="6" stroke-linecap="round"/>
<path d="M29.7769 24.8795L36.7505 29.5864" stroke="#B90FFF" stroke-width="6" stroke-linecap="round"/>
<path d="M49.6116 29.2166L58.5372 37.5" stroke="#B90FFF" stroke-width="6" stroke-linecap="round"/>
<path d="M6.45728 39.7816C10.914 36.5186 11.5339 33.706 13.9091 30.5" stroke="#B90FFF" stroke-width="6" stroke-linecap="round"/>
<path d="M29.7769 9.5L33.7438 15" stroke="#B90FFF" stroke-width="6" stroke-linecap="round"/>
<path d="M53.7585 10.5L46.6363 20.5" stroke="#B90FFF" stroke-width="6" stroke-linecap="round"/>
<path d="M6.47107 7C24.3409 7.03581 32.6242 6.25881 57.5454 3" stroke="#B90FFF" stroke-width="6" stroke-linecap="round"/>
</svg>
